<?xml version="1.0" encoding="utf-8"?>
<!-- Generator: Adobe Illustrator 23.0.0, SVG Export Plug-In . SVG Version: 6.00 Build 0)  -->
<svg version="1.1" id="Layer_1" xmlns="http://www.w3.org/2000/svg" xmlns:xlink="http://www.w3.org/1999/xlink" x="0px" y="0px"
	 viewBox="0 0 512 512" style="enable-background:new 0 0 512 512;" xml:space="preserve">
<style type="text/css">
	.st0{fill:none;stroke:#000000;stroke-miterlimit:10;}
	.st1{fill:#6D449B;stroke:#000000;stroke-miterlimit:10;}
	.st2{fill:#6D459B;stroke:#000000;stroke-miterlimit:10;}
	.st3{stroke:#000000;stroke-miterlimit:10;}
</style>
<path class="st0" d="M202.53,54.06"/>
<g>
	<g>
		<g>
			<path d="M334.01,213.74c3.22,0,3.22-5,0-5C330.79,208.74,330.78,213.74,334.01,213.74L334.01,213.74z"/>
		</g>
	</g>
	<line class="st0" x1="337.31" y1="211.24" x2="309.29" y2="211.24"/>
	<line class="st0" x1="334.01" y1="211.24" x2="352.76" y2="185.57"/>
	<g>
		<g>
			<path d="M405.07,154.44c0,7.78-3.26,14.12-9.77,19c-8.87,6.52-22.8,9.77-41.8,9.77c-3.26,0-5.43-0.64-6.52-1.9
				c-1.09-1.26-1.63-2.99-1.63-5.15c0-1.99,1.17-3.8,3.53-5.43s4.07-2.17,5.16-1.63l15.74,8.14c1.45,0.73,3.98,1.08,7.6,1.08
				c2.53,0,4.61-1.08,6.24-3.25c1.63-2.17,2.44-4.52,2.44-7.06c-0.73-6.15-3.8-9.23-9.23-9.23h-19.54c-2.71,0-4.48-1.31-5.29-3.94
				c-0.81-2.62-1.22-4.93-1.22-6.92c0-8.14,5.97-15.74,17.92-22.8c9.23-5.43,15.56-8.14,19-8.14h8.69l1.09,2.44l-2.44,11.95h-2.17
				l-11.94-5.21l-3.53-1.04c-2,0-3.62,0.99-4.89,2.99c-1.27,1.99-1.9,4.44-1.9,7.33c0,3.62,0.9,6.11,2.71,7.47
				c1.81,1.36,4.34,2.04,7.6,2.04h15.47c2.53,0,4.61,0.91,6.24,2.71C404.25,149.46,405.07,151.72,405.07,154.44z"/>
		</g>
		<g>
			<path class="st1" d="M250.29,212.67c0,45.54-36.92,82.46-82.46,82.46c-45.52,0-82.44-36.92-82.44-82.46
				c0-2.44,0.1-4.85,0.32-7.23c7.65,4.59,16.62,7.23,26.18,7.23c7.84,0,15.29-1.77,21.93-4.95c-0.16,1.43-0.24,2.9-0.26,4.35
				c-0.03,1.92,16.38,55.45,50.37,51.58c22.47-2.56,36.92-27.73,38.47-48.33c1.68-22.25-11.44-41.95-27.14-51.17
				c-3.91-2.29-12.1-7.1-23-7.07c-14.07,0.04-23.48,8.11-26.23,4.89c-1.71-2,1.66-5.41,5.01-17.36c2.75-9.81,1.9-12.53,4.37-13.88
				c4.89-2.67,11.13,6.35,23.01,8.74c8.58,1.72,16.34-0.77,21.47-3.09c4.54-4.94,10.97-13.23,15.04-24.94
				c2.48-7.15,12.38-35.82-4.66-54.16c-10.72-11.54-28-14.08-41.22-10.94c-20.5,4.88-32.32,24.13-35.2,38.68
				c-0.35,1.77-0.53,3.27-0.62,4.31c-5.86-4.47-12.79-7.71-20.46-9.33c-9.37-1.93-18.69-1.19-27.11,1.75
				c0.26-2.38,0.66-4.75,1.15-7.15c9.29-44.57,52.95-73.2,97.53-63.93c44.57,9.29,73.2,52.95,63.93,97.53
				c-2.46,11.85-9.16,24.2-9.16,24.2c-4.59,9.03-9.56,15.96-13.36,20.69c5.78,5.97,15.7,17.84,21,35.63
				C246.76,188.73,250.29,200.88,250.29,212.67z"/>
			<path class="st2" d="M255.65,221.67c6.26,45.11,47.9,76.6,93.01,70.34c45.09-6.26,76.58-47.9,70.32-93.01
				c-0.34-2.41-0.77-4.79-1.31-7.12c-3.03,2.44-6.36,4.55-9.93,6.26c-2.94,1.41-8.14,3.55-15.01,4.5c-7.19,1-13.22,0.27-17.24-0.54
				c0.48,1.25,1.02,2.86,1.46,4.77c4.46,19.34-5.72,49.43-29.83,56.87c-18.74,5.78-37.4-4.76-47.31-15.43
				c-18.4-19.8-14.46-48.41-6.51-64.45c2.78-5.62,7.92-15.99,19.63-20.31c10.24-3.78,19.74-0.82,23.24,0.48
				c-0.38-1.57-0.69-3.22-0.92-4.85c-1.55-11.17,0.65-21.99,5.63-31.2c-4.89-0.22-9.86,0.01-14.89,0.7
				C280.88,134.93,249.39,176.58,255.65,221.67z"/>
			<g>
				<g>
					<path class="st3" d="M31.41,374c0.46-0.54,0.95-0.81,1.45-0.81c0.5,0.01,0.89,0.16,1.15,0.47c0.26,0.31,0.34,0.73,0.23,1.27
						c-0.11,0.54-0.52,1.12-1.24,1.72c-1.74,1.47-3.73,2.58-5.99,3.32c-2.26,0.74-4.81,0.7-7.66-0.13
						c-2.92-0.85-5.24-1.99-6.95-3.39c-1.72-1.4-2.88-3.3-3.48-5.69c-0.6-2.39-0.64-5.37-0.11-8.94c0.53-3.57,1.61-7.91,3.22-13.04
						c0.69-2.19,1.03-3.28,1.72-5.47c0.7-2.22,1.05-3.34,1.75-5.56c0.54-1.73,1.17-3.71,1.87-5.93s1.48-4.59,2.35-7.11
						c0.05-0.15,0.07-0.22,0.12-0.37c0.27-0.87-0.08-1.47-1.05-1.81c-0.97-0.34-2.04-0.7-3.19-1.07c-0.68-0.22-1.13-0.53-1.37-0.95
						c-0.24-0.42-0.3-0.81-0.18-1.18s0.38-0.66,0.78-0.87c0.4-0.21,0.98-0.2,1.72,0.04c1.94,0.62,2.92,0.93,4.86,1.54
						c0.95-3.03,1.74-5.5,2.38-7.4c0.63-1.9,1.14-3.41,1.53-4.51c0.38-1.1,0.66-1.86,0.83-2.29c0.17-0.42,0.26-0.66,0.28-0.73
						c0.15-0.49,0.48-0.85,0.99-1.07c0.5-0.22,1.29-0.24,2.33-0.14c1.46,0.14,2.34,0.57,2.57,1.35c0.23,0.78,0.21,1.88-0.07,3.28
						c-0.14,0.7-0.37,1.65-0.7,2.83c-0.32,1.19-0.67,2.44-1.03,3.75c-0.36,1.31-0.74,2.6-1.12,3.87c-0.39,1.27-0.71,2.34-0.97,3.21
						c3.01,0.91,4.51,1.36,7.53,2.24c0.75,0.22,1.24,0.53,1.49,0.94c0.25,0.41,0.32,0.8,0.21,1.17c-0.11,0.37-0.4,0.66-0.86,0.86
						c-0.47,0.2-1,0.21-1.62,0.03c-0.48-0.14-1.1-0.34-1.88-0.6c-0.77-0.26-1.55-0.47-2.31-0.64c-0.77-0.16-1.49-0.28-2.18-0.35
						c-0.69-0.07-1.41,0.02-1.58,0.23c-1.34,1.79-2.02,7.02-3.21,10.96c-1.19,3.94-2.57,8.48-4.13,13.62
						c-1.32,4.34-2.42,8.03-3.3,11.08c-0.89,3.05-1.4,5.58-1.54,7.6c-0.14,2.02,0.18,3.63,0.97,4.81c0.79,1.18,2.17,2.07,4.13,2.64
						c2.4,0.7,4.5,0.79,6.3,0.25C28.23,376.55,29.89,375.53,31.41,374z"/>
					<path class="st3" d="M46.46,315.64c0.22-1.01,0.59-1.89,1.12-2.61c0.53-0.73,1.12-1.28,1.76-1.67
						c0.65-0.39,1.34-0.55,2.07-0.48c0.73,0.07,1.45,0.4,2.14,0.99c1.49,1.35,2.17,2.84,2.01,4.47c-0.15,1.64-0.78,2.91-1.9,3.82
						c-0.66,0.56-1.46,0.85-2.41,0.86c-0.95,0.01-1.82-0.2-2.61-0.62c-0.79-0.42-1.42-1.05-1.87-1.88
						C46.34,317.68,46.23,316.72,46.46,315.64z M37.4,356.3c0.59-2.12,1.27-4.49,2.04-7.1c0.77-2.61,1.49-5.13,2.17-7.57
						c0.68-2.43,1.24-4.6,1.7-6.49c0.45-1.89,0.67-3.18,0.63-3.86c-0.06-1.09,0.1-1.92,0.48-2.49c0.38-0.57,1.4-0.78,3.05-0.67
						c1.58,0.11,2.68,0.58,3.29,1.45c0.61,0.87,0.79,1.99,0.59,3.33c-0.17,1.15-0.4,2.38-0.7,3.64c-0.3,1.26-0.7,2.8-1.18,4.61
						c-0.49,1.82-1.09,4.07-1.81,6.76c-0.72,2.69-1.61,6.01-2.67,9.95c-1.18,4.38-2.15,8.09-2.93,11.13
						c-0.78,3.04-1.19,5.57-1.22,7.57c-0.03,2,0.35,3.56,1.15,4.68c0.8,1.12,2.18,1.93,4.16,2.44c2.41,0.62,4.74,0.58,6.98-0.13
						c2.23-0.71,4.04-1.87,5.44-3.46c0.44-0.56,0.92-0.84,1.42-0.85c0.5-0.01,0.89,0.13,1.16,0.43c0.27,0.3,0.36,0.72,0.27,1.27
						c-0.09,0.54-0.51,1.13-1.18,1.77c-0.81,0.77-1.76,1.54-2.86,2.21c-1.09,0.67-2.28,1.23-3.56,1.68
						c-1.28,0.45-2.64,0.73-4.07,0.83c-1.43,0.11-2.85-0.02-4.24-0.38c-2.94-0.76-5.29-1.82-7.04-3.16c-1.76-1.34-2.96-3.2-3.6-5.56
						c-0.64-2.36-0.74-5.33-0.29-8.9C35,365.86,35.96,361.48,37.4,356.3z"/>
					<path class="st3" d="M104.08,383.95c0.58-0.68,1.16-1.07,1.74-1.16c0.58-0.09,1.05,0,1.42,0.26c0.36,0.26,0.54,0.68,0.51,1.23
						c-0.03,0.55-0.33,1.18-0.9,1.86c-1.05,1.19-2.42,2.46-4.11,3.79c-1.69,1.33-3.72,2.5-6.09,3.49c-2.37,0.99-5.08,1.68-8.12,2.05
						c-3.04,0.37-6.38,0.18-10-0.6c-8.58-1.85-14.32-5.74-17.15-11.48c-2.83-5.74-3.12-12.93-0.99-21.54
						c0.14-0.57,0.21-0.85,0.35-1.41c2.23-8.99,6.02-15.25,11.27-18.86c5.25-3.61,11.43-4.59,18.65-3.04
						c4.61,0.99,7.95,2.4,10.02,4.27c2.07,1.87,3.1,4,3.06,6.4c-0.04,2.4-1,4.92-2.9,7.55c-1.91,2.63-4.51,5.17-7.83,7.59
						c-3.32,2.43-7.25,4.62-11.8,6.54c-4.56,1.92-9.46,3.34-14.7,4.23c-0.07,4.18,0.81,7.71,2.65,10.59
						c1.84,2.88,5.13,4.86,9.84,5.87c3.02,0.65,5.82,0.86,8.4,0.63c2.58-0.23,4.92-0.74,7.02-1.51c2.1-0.77,3.95-1.77,5.54-2.98
						C101.56,386.51,102.93,385.25,104.08,383.95z M107.56,333.47c0.67,0.92,1.04,1.7,1.09,2.34c0.05,0.64-0.11,1.1-0.48,1.39
						c-0.38,0.29-0.92,0.33-1.63,0.13c-0.71-0.2-1.41-0.7-2.11-1.5c-0.13-0.09-0.23-0.19-0.31-0.31s-0.19-0.22-0.31-0.31
						c-0.12-0.09-0.22-0.17-0.27-0.25c-1.61-2.3-3.11-4.53-4.52-6.57c-1.23-1.78-2.48-3.63-3.66-5.54
						c-1.18-1.91-2.12-3.47-2.84-4.69c-2.29,1.49-4.46,2.88-6.49,4.18c-2.03,1.3-3.86,2.42-5.42,3.39c-1.84,1.14-3.52,2.2-5.03,3.11
						c-0.18,0.04-0.27,0.06-0.45,0.09c-0.15,0.03-0.27,0.09-0.36,0.16c-0.09,0.08-0.21,0.13-0.36,0.16
						c-1.04,0.42-1.91,0.57-2.6,0.47c-0.7-0.1-1.17-0.37-1.43-0.8c-0.26-0.43-0.22-0.92,0.09-1.48c0.32-0.56,0.98-1.11,1.97-1.67
						c2.14-1.14,4.19-2.35,6.13-3.63c1.94-1.27,3.68-2.51,5.23-3.72c1.55-1.2,2.87-2.3,3.97-3.28c1.1-0.98,1.89-1.78,2.38-2.4
						c0.3-0.4,0.8-0.62,1.51-0.66c0.71-0.04,1.42,0.02,2.16,0.18c0.73,0.16,1.41,0.41,2.03,0.74c0.62,0.33,0.99,0.74,1.09,1.23
						c0.18,0.77,0.57,1.83,1.16,3.18c0.59,1.35,1.33,2.9,2.23,4.64c0.9,1.74,1.97,3.6,3.19,5.56S106.09,331.53,107.56,333.47z
						 M68.17,363.73c-0.37,1.58-0.69,3.08-0.96,4.52c-0.26,1.43-0.45,2.84-0.54,4.22c4.23-0.86,8.16-2.18,11.78-3.93
						c3.62-1.75,6.73-3.71,9.34-5.87c2.61-2.16,4.7-4.41,6.28-6.73c1.58-2.32,2.5-4.5,2.76-6.53c0.27-2.03-0.15-3.8-1.24-5.32
						c-1.09-1.52-2.99-2.56-5.68-3.14c-2.69-0.58-5.16-0.48-7.4,0.31s-4.27,2.14-6.07,4.05c-1.8,1.91-3.36,4.31-4.67,7.19
						c-1.31,2.89-2.4,6.16-3.27,9.81C68.37,362.88,68.31,363.17,68.17,363.73z M123.39,304.5c0.86-0.63,1.76-0.75,2.7-0.36
						c0.94,0.4,1.69,1.32,2.27,2.71c0.56,1.34,0.36,2.46-0.68,3.33c-1.04,0.87-2.27,1.48-3.7,1.82c-0.36,0.07-0.91,0.18-1.65,0.35
						s-1.62,0.33-2.61,0.51c-1,0.18-2.06,0.36-3.19,0.54c-1.14,0.18-2.27,0.36-3.41,0.54c-2.7,0.41-5.62,0.82-8.76,1.24
						c-0.13-0.03-0.31-0.03-0.52-0.01c-0.43,0.05-0.71,0.09-0.86,0.12c-1.07,0.11-1.9,0-2.49-0.32c-0.59-0.32-0.93-0.71-1.01-1.15
						c-0.08-0.45,0.12-0.9,0.6-1.36c0.48-0.46,1.26-0.81,2.35-1.05c2.37-0.43,4.69-0.96,6.94-1.57c2.25-0.61,4.31-1.25,6.19-1.92
						c1.87-0.67,3.49-1.3,4.86-1.91C121.78,305.43,122.77,304.92,123.39,304.5z"/>
					<path class="st3" d="M167.79,399.14c0.36-0.61,0.79-0.96,1.29-1.04c0.49-0.08,0.9,0.01,1.2,0.27c0.31,0.26,0.45,0.67,0.44,1.22
						c-0.02,0.55-0.29,1.21-0.81,1.92c-0.67,0.9-1.55,1.76-2.58,2.56c-1.03,0.8-2.14,1.52-3.34,2.13c-1.2,0.62-2.5,1.08-3.9,1.37
						c-1.4,0.3-2.81,0.36-4.23,0.19c-2.99-0.36-5.47-1.09-7.41-2.19c-1.94-1.1-3.41-2.78-4.39-5.04c-0.98-2.25-1.5-5.19-1.57-8.79
						c-0.06-3.6,0.28-8.07,1.02-13.4c0.11-0.77,0.16-1.15,0.27-1.92c0.49-3.53,0.93-6.84,1.32-9.92c0.39-3.08,0.52-5.8,0.38-8.14
						c-0.14-2.34-0.66-4.25-1.55-5.72c-0.9-1.47-2.38-2.35-4.48-2.67c-0.21-0.03-0.31-0.05-0.52-0.08c-3.13-0.47-6-0.25-8.62,0.68
						c-2.62,0.92-4.94,2.38-6.97,4.37c-2.03,1.99-3.73,4.44-5.07,7.36c-1.35,2.92-2.34,6.14-2.95,9.65
						c-0.1,0.57-0.15,0.86-0.25,1.44c-0.04-0.01-0.06-0.01-0.11-0.02c-0.65,3.7-1.18,7.16-1.69,10.26c-0.22,1.33-0.44,2.7-0.6,4.09
						c-0.17,1.38-0.32,2.68-0.45,3.87c-0.13,1.19-0.21,2.28-0.23,3.27c-0.02,0.98,0,1.74,0.06,2.28c0.12,1.07,0.01,1.92-0.33,2.56
						c-0.34,0.63-1.4,0.95-3.16,0.98c-1.69,0.02-3.07-0.4-4.14-1.29c-1.06-0.89-1.54-2.04-1.43-3.47c0.06-0.71,0.17-1.62,0.33-2.71
						c0.16-1.09,0.36-2.26,0.59-3.5c0.23-1.24,0.47-2.51,0.71-3.82c0.24-1.3,0.48-2.56,0.7-3.77c0.86-4.62,1.29-6.94,2.15-11.56
						c0.79-4.27,1.42-7.68,1.9-10.22c0.47-2.55,0.82-4.61,1.04-6.18c0.22-1.57,0.33-2.87,0.34-3.89c0.01-1.02-0.01-2.14-0.08-3.33
						c-0.07-1.13,0.05-2,0.38-2.6c0.33-0.6,1.33-0.89,2.97-0.93c1.5-0.04,2.67,0.34,3.49,1.17s1.18,1.99,1.06,3.4
						c-0.08,0.9-0.25,2.11-0.48,3.62c-0.23,1.51-0.49,3.09-0.78,4.75c2.68-3.28,5.91-5.74,9.69-7.41c3.78-1.67,7.9-2.16,12.42-1.49
						c0.13,0.02,0.19,0.03,0.31,0.05c4.03,0.6,7.01,1.65,8.97,3.2c1.95,1.54,3.25,3.58,3.88,6.11s0.79,5.53,0.45,8.98
						c-0.34,3.45-0.79,7.36-1.35,11.73c-0.07,0.58-0.11,0.87-0.19,1.45c-0.58,4.5-1.05,8.31-1.42,11.43
						c-0.36,3.12-0.43,5.68-0.2,7.67c0.23,1.99,0.82,3.48,1.75,4.48c0.93,1,2.41,1.62,4.42,1.86c2.46,0.29,4.75-0.06,6.86-1.07
						C165,402.3,166.63,400.91,167.79,399.14z"/>
					<path class="st3" d="M227.19,396.85c0.63-1.15,1.2-1.84,1.73-2.08c0.52-0.24,0.93-0.2,1.21,0.13c0.28,0.33,0.43,0.87,0.45,1.62
						c0.02,0.75-0.17,1.54-0.57,2.37c-2.05,4.22-4.63,7.86-7.75,10.91c-3.12,3.06-10.01,6.31-11.6,8.81
						c-3.52,5.51-2.69,23.18-6.42,34.29c-3.27,9.76-7.46,17.92-12.62,24.31c-5.17,6.39-11.12,11.04-17.79,13.89
						c-6.68,2.86-13.83,3.88-21.34,3.04c-8.01-0.89-14.78-2.78-20.25-5.57c-5.47-2.79-9.46-6.11-11.97-9.89
						c-2.51-3.78-3.51-7.84-3.05-12.16c0.46-4.32,2.56-8.53,6.21-12.67c3.65-4.14,8.91-8.01,15.71-11.71s15.32-6.8,25.36-9.54
						c6.96-1.9,13.73-3.99,20.25-6.15c6.52-2.16,12.62-4.73,18.27-7.7c0.06-0.97,0.14-1.96,0.24-2.95c0.1-1,0.18-2.02,0.24-3.05
						c0.25-4.15,0.38-6.23,0.64-10.38c-1.88,2.74-4.23,4.93-7.05,6.55c-2.82,1.62-6.23,2.28-10.21,1.96
						c-0.14-0.01-0.2-0.02-0.34-0.03c-7.8-0.64-13.14-3.45-15.95-8.3c-2.81-4.84-3.65-12.07-2.62-21.67
						c0.06-0.58,0.09-0.87,0.16-1.45c0.49-4.57,1.49-8.54,2.96-11.9c1.47-3.36,3.33-6.11,5.57-8.27c2.24-2.15,4.79-3.7,7.67-4.64
						c2.87-0.94,6.01-1.27,9.43-1.01c0.13,0.01,0.19,0.01,0.31,0.02c3.35,0.26,6.05,0.87,8.09,1.86c2.04,0.98,3.65,2.32,4.82,4.01
						c0.03-0.52,0.09-0.9,0.18-1.16c0.22-1.35,0.81-2.34,1.76-2.96c0.95-0.63,2.19-0.72,3.7-0.33c1.58,0.42,2.46,0.94,2.6,1.6
						c0.14,0.65,0.03,1.51-0.29,2.52c-0.44,1.44-0.85,3.77-1.26,6.89c-0.41,3.13-0.72,6.63-0.93,10.51
						c-0.14,2.72-0.31,5.84-0.49,9.36c-0.19,3.53-0.35,7.02-0.5,10.48c-0.14,3.46-0.3,6.7-0.45,9.71c-0.16,3.01-0.28,5.35-0.37,7.04
						c-0.02,0.35-0.03,0.52-0.05,0.87c3.67-2.4,6.79-4.95,9.37-7.63C222.84,403.73,225.15,400.54,227.19,396.85z M152.98,490.78
						c6.25,0.7,12.19-0.34,17.73-3.08c5.54-2.74,10.51-7.03,14.85-12.83c4.35-5.8,7.93-13.12,10.83-21.82
						c3.17-9.51,5.2-20.15,6.13-30.13c-5.51,2.64-11.38,4.99-17.61,7.02c-6.23,2.02-12.6,3.91-19.1,5.64
						c-8.99,2.39-16.56,5.19-22.66,8.52c-6.1,3.33-10.83,6.83-14.11,10.59c-3.28,3.75-5.22,7.55-5.75,11.44
						c-0.53,3.88,0.22,7.53,2.3,10.94c2.08,3.41,5.43,6.37,10.06,8.83C140.28,488.36,146.07,490.01,152.98,490.78z M204.8,382.55
						c0.21-3.36,0.41-6.58,0.6-9.65c0.19-3.07,0.04-5.81-0.45-8.21c-0.49-2.4-1.5-4.35-3.02-5.85c-1.52-1.5-3.86-2.36-7.01-2.6
						c-0.21-0.02-0.32-0.02-0.53-0.04c-2.52-0.2-4.84,0.28-6.95,1.43c-2.12,1.15-3.95,2.81-5.51,4.97
						c-1.56,2.17-2.84,4.76-3.86,7.79c-1.01,3.03-1.7,6.31-2.05,9.86c-0.06,0.58-0.09,0.87-0.14,1.45
						c-0.37,3.74-0.48,7.16-0.34,10.27c0.14,3.11,0.61,5.82,1.4,8.14c0.79,2.32,1.99,4.17,3.59,5.55c1.6,1.38,3.65,2.18,6.11,2.38
						c0.22,0.02,0.34,0.03,0.56,0.05c2.69,0.22,5.1-0.28,7.21-1.49c2.11-1.21,3.9-2.94,5.35-5.18c1.45-2.24,2.58-4.86,3.4-7.86
						c0.82-3,1.32-6.18,1.53-9.54C204.75,383.43,204.77,383.13,204.8,382.55z"/>
					<path class="st3" d="M330.46,304.3c0.13-1.25,0.52-2.15,1.15-2.71c0.63-0.56,1.28-0.77,1.96-0.65
						c0.67,0.12,1.26,0.58,1.78,1.37c0.52,0.79,0.69,1.91,0.52,3.36c-0.46,4.81-1.87,9.46-4.28,13.95
						c-2.41,4.48-6.35,8.72-11.86,12.64c-5.51,3.92-12.9,7.55-22.14,10.63c-11.36,3.78-23.32,5.9-35.25,7.18
						c0.04,4.08,0.11,9.27,0.2,15.55c0.1,6.28,0.18,12.92,0.25,19.92c0.04,4.53,0.1,8.37,0.17,11.51c0.07,3.14,0.33,5.68,0.8,7.62
						c0.47,1.94,1.25,3.34,2.35,4.2c1.09,0.86,2.66,1.27,4.68,1.24c2.47-0.05,4.67-0.72,6.58-2c1.91-1.28,3.35-2.88,4.33-4.8
						c0.28-0.66,0.65-1.06,1.13-1.2c0.48-0.15,0.89-0.11,1.23,0.1c0.34,0.21,0.54,0.6,0.6,1.15c0.06,0.55-0.19,1.23-0.65,2.02
						c-0.57,0.96-1.29,1.96-2.2,2.89c-0.91,0.94-1.91,1.8-3.01,2.57c-1.1,0.78-2.33,1.41-3.67,1.9c-1.34,0.49-2.73,0.74-4.16,0.77
						c-3.01,0.06-5.53-0.33-7.57-1.15c-2.03-0.82-3.7-2.29-4.97-4.39c-1.28-2.1-2.2-4.93-2.75-8.49c-0.56-3.56-0.83-8.03-0.83-13.41
						c0-2.33,0-3.5,0-5.83c0.07-2.66,0.11-5.38,0.11-8.16c0-2.4,0-5.04,0-7.92c0-2.88,0.07-5.72,0.1-8.4
						c0.01-0.51-0.05-1.04-0.16-1.56c-0.1-0.52-0.38-0.97-0.84-1.36c-0.45-0.39-1.15-0.73-2.09-1.02c-0.94-0.3-2.21-0.45-3.81-0.46
						c-0.07,0-0.14-0.02-0.21-0.05c-0.07-0.03-0.14-0.05-0.21-0.05c-9.55,0.58-19.29,0.66-28.81,0.42
						c-11.33-0.28-22.78-1.17-34.02-2.33c-13.12-1.34-26.34-3.45-39.39-5.96c-15.04-2.89-29.86-6.57-44.65-10.53
						c-1.08-0.28-1.71-0.58-1.9-0.89c-0.19-0.3-0.11-0.57,0.22-0.8c0.33-0.23,0.81-0.38,1.42-0.45c0.62-0.07,1.17-0.06,1.64,0.04
						c15.84,4.06,31.76,7.72,47.77,10.61c13.59,2.45,27.55,4.35,41.29,5.46c11.56,0.93,23.33,1.56,34.97,1.5
						c9.54-0.05,19.33-0.44,28.87-1.41c0.07-5.44,0.12-9.59,0.15-12.44c0.03-2.85,0.12-4.36,0.15-4.47c0.09-0.38,0.2-0.96,0.61-1.31
						c0.4-0.36,1.13-0.62,2.12-0.83c1.4-0.3,2.34-0.16,2.79,0.52c0.44,0.67,0.74,1.73,0.89,3.15c0.15,1.42,0.25,2.85,0.3,4.27
						c0.05,1.42,0.08,3.37,0.11,5.83c0.02,1.79,0.03,2.68,0.04,4.47c11.26-1.78,22.52-3.54,33.3-7.37
						c8.64-3.07,15.49-6.52,20.53-10.25c5.04-3.73,8.58-7.66,10.67-11.73C328.9,312.65,330.1,308.5,330.46,304.3z"/>
					<path class="st3" d="M309.57,353.22c1.49,0.22,2.84,0.62,4.04,1.22c1.21,0.59,2.14,1.33,2.81,2.22
						c0.67,0.89,1.05,1.88,1.14,2.98c0.09,1.1-0.17,2.27-0.79,3.47c-0.66,1.28-1.56,2.19-2.63,2.69c-1.07,0.5-2.09,0.64-3.07,0.42
						s-1.8-0.77-2.47-1.63c-0.66-0.86-0.95-2.01-0.81-3.35c0.15-1.48-0.17-2.55-1.06-3.14c-0.89-0.59-2.11-0.67-3.62-0.35
						c-1.43,0.3-2.97,1.28-4.54,2.99c-1.57,1.71-3.05,4.09-4.47,7.14c-1.42,3.05-2.71,6.76-3.89,11.13
						c-1.18,4.37-2.14,9.35-2.87,14.95c0.06,1.42,0.15,2.9,0.29,4.41c0.13,1.52,0.27,2.96,0.4,4.31c0.13,1.36,0.27,2.57,0.43,3.63
						s0.32,1.88,0.49,2.46c0.42,1.02,0.53,1.87,0.33,2.56c-0.2,0.69-1.16,1.23-2.87,1.62c-1.64,0.38-2.89,0.25-3.74-0.4
						c-0.85-0.65-1.37-1.69-1.56-3.11c-0.1-0.71-0.18-1.62-0.25-2.71c-0.07-1.1-0.15-2.28-0.22-3.54c-0.08-1.26-0.14-2.55-0.18-3.88
						c-0.04-1.33-0.08-2.61-0.12-3.84c-0.15-4.7-0.22-7.05-0.37-11.75c-0.13-4.34-0.24-7.8-0.32-10.39
						c-0.08-2.59-0.16-4.68-0.25-6.26c-0.09-1.58-0.23-2.88-0.44-3.88c-0.21-1-0.46-2.09-0.79-3.23c-0.3-1.09-0.39-1.97-0.24-2.62
						c0.16-0.65,1.04-1.16,2.63-1.54c1.52-0.37,2.76-0.24,3.7,0.4c0.94,0.65,1.51,1.68,1.7,3.1c0.1,0.71,0.13,1.62,0.11,2.72
						c-0.03,1.1-0.07,2.29-0.12,3.55c-0.06,1.27-0.11,2.57-0.17,3.9c-0.06,1.33-0.06,2.61-0.01,3.84c0.03,0.65,0.05,1.26,0.07,1.84
						c0.02,0.58,0.08,1.13,0.17,1.65c1.92-6.17,4.16-11.16,6.73-14.98c2.57-3.82,5.58-6.37,8.99-7.69
						C304.27,353.14,306.88,352.82,309.57,353.22z"/>
					<path class="st3" d="M387.37,393.64c0.19-0.69,0.52-1.12,0.98-1.29c0.46-0.17,0.86-0.14,1.21,0.1
						c0.34,0.24,0.58,0.64,0.71,1.21c0.13,0.57,0.04,1.27-0.28,2.11c-0.95,2.06-2.3,3.91-4.06,5.53c-1.76,1.63-4.07,2.66-6.9,3.08
						c-4.25,0.64-7.69,0.17-10.29-1.37c-2.6-1.54-4.69-4.59-6.26-9.16c-1.56,4.06-3.99,7.48-7.28,10.23
						c-3.29,2.75-7.43,4.4-12.38,4.92c-0.09,0.01-0.13,0.01-0.22,0.02c-4.12,0.43-7.41,0.12-9.84-0.93c-2.44-1.04-4.33-2.71-5.69-5
						c-1.36-2.29-2.31-5.17-2.87-8.63c-0.55-3.46-1.01-7.39-1.38-11.78c-0.18-2.13-0.27-3.2-0.45-5.33
						c-0.26-3.94-0.46-7.54-0.68-10.67c-0.1-1.34-0.21-2.68-0.28-3.97c-0.07-1.29-0.14-2.46-0.19-3.49
						c-0.05-1.03-0.09-1.9-0.11-2.58c-0.02-0.68-0.04-1.05-0.04-1.12c0.03-0.52,0.23-0.98,0.62-1.37c0.39-0.39,1.12-0.72,2.13-1.01
						c1.42-0.42,2.41-0.36,2.93,0.27c0.52,0.63,0.91,1.63,1.18,2.97c0.14,0.7,0.27,1.6,0.41,2.69c0.14,1.09,0.28,2.27,0.44,3.52
						c0.15,1.25,0.29,2.54,0.42,3.86c0.12,1.32,0.24,2.6,0.36,3.82c0.44,4.68,0.66,7.02,1.1,11.71c0.44,4.71,0.93,8.68,1.45,11.92
						c0.53,3.24,1.22,5.82,2.08,7.76c0.86,1.93,1.97,3.28,3.32,4.02c1.35,0.74,3.04,1.01,5.06,0.8c0.22-0.02,0.34-0.04,0.56-0.06
						c3.21-0.34,5.94-1.25,8.19-2.72c2.24-1.47,4.03-3.37,5.36-5.68c1.33-2.32,2.2-4.96,2.64-7.92c0.44-2.96,0.51-6.09,0.23-9.39
						c-0.38-2.89-0.56-4.34-0.94-7.23c-0.24-2.97-0.53-5.75-0.87-8.31c-0.29-2.25-0.63-4.44-1.02-6.58
						c-0.39-2.14-0.79-3.73-1.21-4.79c-0.42-1.06-0.57-1.92-0.44-2.59c0.13-0.67,0.98-1.26,2.53-1.8c1.48-0.52,2.73-0.51,3.72,0.03
						c1,0.55,1.67,1.49,1.99,2.81c0.17,0.69,0.35,1.59,0.53,2.67c0.19,1.09,0.39,2.25,0.6,3.5c0.21,1.24,0.41,2.53,0.59,3.84
						c0.18,1.32,0.36,2.58,0.53,3.8c0.65,4.66,0.98,6.99,1.63,11.64c0.63,4.49,1.18,8.29,1.65,11.4c0.47,3.11,1.08,5.59,1.83,7.45
						c0.75,1.86,1.71,3.14,2.87,3.86c1.16,0.72,2.75,0.93,4.76,0.63c2.45-0.37,4.4-1.19,5.83-2.47
						C385.55,397.32,386.64,395.67,387.37,393.64z"/>
					<path class="st3" d="M450.72,380.21c0.14-0.7,0.42-1.17,0.87-1.41c0.44-0.24,0.85-0.29,1.23-0.15c0.38,0.14,0.66,0.47,0.82,1
						c0.17,0.53,0.14,1.24-0.12,2.08c-0.33,1.08-0.88,2.18-1.57,3.29c-0.7,1.11-1.51,2.15-2.44,3.14c-0.93,0.99-2,1.86-3.22,2.61
						c-1.22,0.75-2.54,1.29-3.94,1.61c-2.95,0.68-5.54,0.82-7.74,0.45c-2.21-0.38-4.16-1.46-5.85-3.26
						c-1.69-1.79-3.17-4.38-4.45-7.75c-1.28-3.37-2.46-7.69-3.57-12.95c-0.16-0.76-0.24-1.14-0.4-1.9c-0.73-3.49-1.43-6.75-2.1-9.79
						s-1.47-5.63-2.39-7.79c-0.92-2.16-2.06-3.77-3.4-4.85c-1.34-1.08-3.05-1.41-5.12-1c-0.21,0.04-0.31,0.06-0.52,0.1
						c-3.12,0.62-5.74,1.8-7.9,3.55c-2.15,1.75-3.85,3.91-5.09,6.46c-1.24,2.56-2.01,5.44-2.29,8.64c-0.28,3.2-0.13,6.56,0.48,10.08
						c0.1,0.57,0.15,0.86,0.25,1.44c-0.04,0.01-0.06,0.01-0.11,0.02c0.64,3.7,1.3,7.14,1.87,10.23c0.24,1.32,0.5,2.69,0.81,4.05
						c0.31,1.36,0.6,2.63,0.88,3.79c0.28,1.17,0.57,2.22,0.89,3.15c0.31,0.93,0.59,1.64,0.83,2.13c0.47,0.97,0.66,1.81,0.55,2.52
						c-0.11,0.71-0.99,1.37-2.64,1.98c-1.58,0.59-3.03,0.66-4.33,0.18c-1.3-0.48-2.14-1.41-2.51-2.79c-0.19-0.69-0.39-1.58-0.6-2.66
						c-0.21-1.08-0.42-2.25-0.62-3.49c-0.2-1.25-0.41-2.52-0.62-3.84c-0.21-1.31-0.42-2.57-0.61-3.79
						c-0.75-4.64-1.13-6.96-1.88-11.61c-0.69-4.28-1.25-7.71-1.66-10.26c-0.41-2.56-0.79-4.61-1.11-6.17
						c-0.32-1.55-0.65-2.82-0.99-3.78c-0.33-0.96-0.73-2.01-1.2-3.1c-0.44-1.04-0.63-1.9-0.52-2.57c0.11-0.67,0.95-1.29,2.47-1.88
						c1.4-0.54,2.63-0.58,3.68-0.07c1.05,0.51,1.78,1.47,2.14,2.84c0.23,0.87,0.48,2.07,0.77,3.56c0.29,1.49,0.58,3.07,0.86,4.73
						c1.42-3.99,3.63-7.4,6.62-10.25c3-2.85,6.72-4.7,11.2-5.59c0.12-0.02,0.19-0.04,0.31-0.06c4-0.79,7.18-0.81,9.54-0.02
						c2.37,0.79,4.28,2.27,5.73,4.44s2.61,4.93,3.46,8.3c0.85,3.36,1.75,7.19,2.69,11.5c0.13,0.57,0.19,0.85,0.31,1.42
						c0.97,4.43,1.82,8.18,2.53,11.23c0.71,3.06,1.51,5.49,2.4,7.28c0.89,1.79,1.95,3,3.17,3.63c1.22,0.62,2.82,0.71,4.81,0.26
						c2.42-0.56,4.47-1.67,6.12-3.33C449.14,384.13,450.22,382.27,450.72,380.21z"/>
					<path class="st3" d="M502.09,353.7c0.84-1.02,1.62-1.67,2.34-1.97c0.72-0.3,1.24-0.31,1.56-0.05c0.32,0.27,0.44,0.76,0.36,1.47
						c-0.08,0.71-0.49,1.52-1.21,2.43c-1.82,2.36-3.64,4.54-5.43,6.56c-1.8,2.02-3.93,4.39-6.41,7.1c0.75,2.48,1.45,4.76,2.11,6.82
						c0.66,2.07,1.21,3.81,1.64,5.24c0.43,1.43,0.75,2.5,0.97,3.21c0.21,0.71,0.28,0.94,0.21,0.7c3.66,13,6.94,26.11,8.29,39.46
						c0.89,8.8,0.77,19.42-1.55,28.13c-1.99,7.49-5.23,13.16-9.69,16.91c-4.46,3.75-9.79,5.64-15.8,5.71
						c-5.4,0.06-10.02-1.28-13.74-4.06c-3.73-2.78-6.54-6.53-8.45-11.2c-1.91-4.68-2.95-10.11-3.17-16.27
						c-0.22-6.16,0.45-12.6,1.93-19.31c1.49-6.71,3.79-13.53,6.86-20.48c3.07-6.95,7.02-13.58,11.82-19.92
						c-0.35,0.16-0.67,0.28-0.96,0.36c-0.29,0.08-0.62,0.17-0.99,0.27c-0.13,0.04-0.2,0.05-0.33,0.09c-3.81,1.03-7.18,1.32-10.1,0.9
						c-2.92-0.42-5.5-1.55-7.73-3.36c-2.23-1.82-4.14-4.35-5.73-7.6c-1.59-3.25-2.94-7.2-4.07-11.86c-0.14-0.57-0.21-0.85-0.34-1.42
						c-1.08-4.47-1.48-8.54-1.23-12.2c0.26-3.66,1.07-6.88,2.43-9.66c1.36-2.78,3.26-5.1,5.69-6.97c2.44-1.87,5.32-3.25,8.66-4.17
						c0.08-0.02,0.12-0.03,0.2-0.06c3.2-0.87,5.91-1.22,8.14-1.01c2.23,0.21,4.18,0.88,5.84,2.01c0-0.27-0.06-0.59-0.17-0.96
						c-0.24-1.35-0.02-2.47,0.67-3.39c0.69-0.91,1.83-1.43,3.41-1.57c1.65-0.15,2.68,0.04,3.07,0.6c0.39,0.56,0.61,1.38,0.63,2.45
						c0.03,1.54,0.38,3.86,1.08,6.93c0.7,3.07,1.61,6.47,2.73,10.19c2.54,8.45,3.81,12.67,6.35,21.12c2-2.16,3.75-4.05,5.23-5.66
						C498.71,357.59,500.33,355.75,502.09,353.7z M490.92,387.27c-0.02-0.06-0.36-1.18-1.03-3.34c-0.67-2.17-1.5-4.96-2.5-8.38
						c-0.25,0.21-0.49,0.43-0.69,0.66c-0.21,0.23-0.43,0.48-0.67,0.75c-5.79,5.85-10.66,12.21-14.63,19.12
						c-3.97,6.91-7.09,13.86-9.31,20.88c-2.22,7.02-3.55,13.83-3.92,20.44c-0.37,6.61,0.16,12.49,1.65,17.63
						c1.49,5.14,3.91,9.27,7.28,12.36c3.37,3.09,7.7,4.64,12.94,4.58c4.98-0.05,9.18-1.86,12.51-5.4c3.33-3.54,5.59-8.85,6.74-15.89
						c1.15-7.05,1.09-15.88-0.22-26.4C497.51,411.75,494.48,399.38,490.92,387.27z M472.15,382.04c2.63-0.71,4.75-2,6.34-3.86
						c1.6-1.86,2.71-4.09,3.33-6.69c0.62-2.6,0.81-5.46,0.57-8.56c-0.24-3.1-0.84-6.27-1.78-9.5c-0.16-0.56-0.24-0.84-0.41-1.4
						c-0.94-3.23-1.84-6.33-2.7-9.29c-0.86-2.95-1.93-5.48-3.21-7.57c-1.28-2.09-2.88-3.59-4.8-4.49c-1.92-0.9-4.41-0.92-7.49-0.08
						c-0.25,0.07-0.37,0.1-0.62,0.17c-2.46,0.67-4.48,1.9-6.06,3.69c-1.58,1.79-2.74,3.97-3.49,6.53c-0.74,2.57-1.08,5.44-1.02,8.64
						c0.06,3.19,0.53,6.52,1.4,9.97c0.14,0.57,0.21,0.85,0.36,1.41c0.92,3.64,1.97,6.9,3.15,9.78c1.19,2.88,2.54,5.27,4.08,7.18
						c1.53,1.91,3.28,3.26,5.23,4.02c1.95,0.76,4.14,0.82,6.55,0.18C471.82,382.13,471.93,382.1,472.15,382.04z"/>
				</g>
			</g>
		</g>
	</g>
</g>
</svg>
